<?xml version="1.0" encoding="UTF-8"?>
<svg width="2672px" height="651px" viewBox="0 0 2672 651" version="1.1" xmlns="http://www.w3.org/2000/svg" xmlns:xlink="http://www.w3.org/1999/xlink">
    <title>lo</title>
    <g id="Page-1" stroke="none" stroke-width="1" fill="none" fill-rule="evenodd">
        <g id="Group-2" transform="translate(11.527344, 1.445312)">
            <g id="logo" stroke="#000000">
                <polygon id="Path-7" fill="#E02020" points="96.3789062 487.757812 625.886719 487.757812 540.207031 636.222656 180.900391 636.222656"></polygon>
                <polygon id="Path-6" stroke-width="24" fill="#34C838" transform="translate(543.638672, 241.784180) scale(-1, 1) translate(-543.638672, -241.784180) " points="549.373047 11.5546875 718.804688 11.5546875 452.925781 472.013672 368.472656 325.083984"></polygon>
                <polygon id="Path-6" fill="#F7B500" points="180.900391 11.6269531 350.332031 11.6269531 84.453125 472.085937 0 325.15625"></polygon>
                <g id="Group" transform="translate(76.000000, 0.000000)" stroke-width="24">
                    <path d="M15.7477487,460.595073 L263.969142,27.0768597 C268.908771,18.4498067 279.906739,15.4605589 288.533792,20.4001878 C291.279364,21.9722313 293.562091,24.2401591 295.151959,26.975447 L547.131599,460.493661 C552.127236,469.088402 549.209586,480.105581 540.614844,485.101219 C537.867731,486.697961 534.746897,487.539062 531.569443,487.539063 L31.3684098,487.539063 C21.4272843,487.539063 13.3684098,479.480188 13.3684098,469.539063 C13.3684098,466.401309 14.1886359,463.318061 15.7477487,460.595073 Z" id="Path-2"></path>
                    <path d="M190.875,162.335938 L361.920686,162.335938 C366.338964,162.335938 369.920686,165.91766 369.920686,170.335938 C369.920686,171.721623 369.560762,173.083548 368.876169,174.288311 L197.832055,475.295868 C195.64922,479.137276 190.765606,480.481813 186.924199,478.298977 C185.670419,477.586531 184.632525,476.548436 183.920322,475.294518 L98.6445312,325.15625 L98.6445312,325.15625 L190.875,162.335938 Z" id="Path-3"></path>
                    <path d="M380.154819,170.050781 L541.875484,170.244416 C548.502896,170.252351 553.869042,175.631363 553.861107,182.258775 C553.858546,184.397466 553.284458,186.496613 552.198263,188.338945 L385.951446,470.315667 C382.585525,476.024716 375.22881,477.924197 369.519761,474.558277 C367.785087,473.535554 366.335677,472.092739 365.305053,470.362747 L283.265625,332.652344 L283.265625,332.652344 L380.154819,170.050781 Z" id="Path-3" transform="translate(423.058594, 328.904297) scale(1, -1) translate(-423.058594, -328.904297) "></path>
                    <path d="M190.6875,162.554688 L281.585938,325.15625 L454.902818,324.599147 C459.321073,324.584945 462.914289,328.155136 462.928491,332.573391 C462.932991,333.973471 462.569975,335.350215 461.875717,336.566047 L375.667969,487.539062 L375.667969,487.539062" id="Path-4"></path>
                    <polyline id="Path-5" points="281.585937 325.15625 98.6445312 325.046875 190.6875 162.554688"></polyline>
                </g>
                <path d="M185.516235,11.6269531 L535.558112,11.6269531 C538.432356,11.6269531 541.08569,13.1688451 542.508756,15.6660763 L716.269555,320.58581 C717.671151,323.045364 717.66853,326.062514 716.262665,328.519631 L542.511155,632.1956 C541.086221,634.686044 538.436678,636.222656 535.567401,636.222656 L185.506912,636.222656 C182.655372,636.222656 180.0194,634.704824 178.587944,632.23861 L2.32627198,328.562553 C0.887407536,326.083576 0.884731252,323.024249 2.3192563,320.542758 L178.590252,15.6231113 C180.019893,13.1500679 182.659696,11.6269531 185.516235,11.6269531 Z" id="Path" stroke-width="24"></path>
            </g>
            <g id="uppertext" transform="translate(889.472656, 61.554688)">
                <rect id="Rectangle" fill="#F33D30" x="1372" y="93" width="92" height="108" rx="8"></rect>
                <circle id="Oval" fill="#FFC228" cx="882" cy="148" r="54"></circle>
                <ellipse id="Oval" fill="#00CE50" cx="1052" cy="122.5" rx="44" ry="28.5"></ellipse>
                <text id="NETWORK-BM" font-family="FredokaOne-Regular, Fredoka One" font-size="240" font-weight="normal" fill="#000000">
                    <tspan x="48.76" y="234">NETWORK BM</tspan>
                </text>
            </g>
            <text id="www.networkbm.com" font-family="Roboto-Regular, Roboto" font-size="98" font-weight="normal" letter-spacing="43" fill="#000000">
                <tspan x="941.519531" y="435.554688">www.networkbm.com</tspan>
            </text>
        </g>
    </g>
</svg>